<svg xmlns="http://www.w3.org/2000/svg" xmlns:xlink="http://www.w3.org/1999/xlink" version="1.1" x="0px" y="0px" viewBox="0 0 100 125" enable-background="new 0 0 100 100" xml:space="preserve"><g><path fill="#000000" d="M82.195,97.276c-16.966,0.001-37.791-11.752-53.055-29.941C12.752,47.804,5.036,24.76,9.004,7.195   c0.47-2.081,2.324-4.472,12.58-4.472c4.079,0,11.245,0.396,13.411,3.049l0.185,0.252l8.904,13.623   c1.522,2.852,1.874,5.504,1.045,7.883c-0.956,2.742-3.17,4.052-3.912,4.425c-2.287,1.339-5.636,3.304-7.269,4.271   c-0.026,1.312,0.679,4.383,4.065,9.814c7.092,11.374,18.344,21.577,23.381,22.854l4.481-7.095c0.181-0.305,2.242-3.563,6.418-3.563   c1.992,0,4.036,0.772,6.075,2.295l0.273,0.231l12.054,11.519c2.887,3.305,0.417,16.09-1.359,20.385   c-0.442,1.07-1.789,4.326-4.751,4.529C83.806,97.249,83.002,97.276,82.195,97.276z M14.622,9.386   c-3.046,15.479,4.369,36.596,19.076,54.125c14.181,16.898,33.217,27.816,48.497,27.815c0.416,0,0.83-0.009,1.238-0.025   c1.629-2.569,3.139-12.606,2.562-15.299L74.673,65.199c-1.155-0.834-1.928-1.013-2.379-1.013c-0.832,0-1.342,0.717-1.347,0.725   c0,0-5.85,9.311-5.931,9.389c-0.312,0.302-0.876,0.466-1.627,0.608c-0.334,0.063-0.686,0.071-1.039,0.071c-0.001,0-0.002,0-0.002,0   c-3.953-0.001-9.118-2.967-15.352-8.814c-5.2-4.877-10.445-11.224-14.032-16.976c-4.53-7.267-5.963-12.715-4.259-16.194   c0.409-0.851,0.409-0.851,9.604-6.232l0.315-0.16c0,0-0.001,0-0.001,0c-0.007,0,0.675-0.367,0.899-1.071   c0.224-0.702,0-1.754-0.631-2.972L30.485,9.718c-0.973-0.409-4.183-1.044-8.901-1.044C17.99,8.674,15.645,9.056,14.622,9.386z"/></g><text x="0" y="115" fill="#000000" font-size="5px" font-weight="bold" font-family="'Helvetica Neue', Helvetica, Arial-Unicode, Arial, Sans-serif">Created by Karen Tyler</text><text x="0" y="120" fill="#000000" font-size="5px" font-weight="bold" font-family="'Helvetica Neue', Helvetica, Arial-Unicode, Arial, Sans-serif">from the Noun Project</text></svg>