<svg xmlns="http://www.w3.org/2000/svg" xmlns:xlink="http://www.w3.org/1999/xlink" version="1.1" x="0px" y="0px" viewBox="0 0 100 125" enable-background="new 0 0 100 100" xml:space="preserve"><path d="M86,12H68c-1.1,0-2,0.9-2,2v33.8H52V34c0-1.1-0.9-2-2-2H32c-1.1,0-2,0.9-2,2v30.9H14c-1.1,0-2,0.9-2,2V86c0,1.1,0.9,2,2,2  h72c1.1,0,2-0.9,2-2V14C88,12.9,87.1,12,86,12z M30,84H16V68.9h14V84z M48,84H34V36h14V84z M66,84H52V51.8h14V84z M84,84H70V16h14  V84z"/><text x="0" y="115" fill="#000000" font-size="5px" font-weight="bold" font-family="'Helvetica Neue', Helvetica, Arial-Unicode, Arial, Sans-serif">Created by Bryn Taylor</text><text x="0" y="120" fill="#000000" font-size="5px" font-weight="bold" font-family="'Helvetica Neue', Helvetica, Arial-Unicode, Arial, Sans-serif">from the Noun Project</text></svg>