<svg xmlns="http://www.w3.org/2000/svg" xmlns:xlink="http://www.w3.org/1999/xlink" version="1.1" x="0px" y="0px" viewBox="0 0 100 125" enable-background="new 0 0 100 100" xml:space="preserve"><path d="M70.319,28.076H29.681c-5.66,0-10.265,4.605-10.265,10.265c0,5.042,3.658,9.236,8.457,10.094v4.168  c0,0.998,0.81,1.808,1.808,1.808h1.106v19.374c0,0.999,0.81,1.809,1.808,1.809s1.808-0.81,1.808-1.809V54.411h5.087v21.304  c0,0.998,0.81,1.808,1.808,1.808s1.808-0.81,1.808-1.808V54.411h5.087v21.804c0,0.998,0.81,1.808,1.808,1.808  c0.999,0,1.808-0.81,1.808-1.808V54.411h5.086v21.304c0,0.998,0.809,1.808,1.808,1.808s1.808-0.81,1.808-1.808V54.411h5.09v19.374  c0,0.999,0.809,1.809,1.808,1.809s1.808-0.81,1.808-1.809V54.411h1.104c0.999,0,1.808-0.81,1.808-1.808v-4.168  c4.8-0.858,8.457-5.052,8.457-10.094C80.584,32.681,75.979,28.076,70.319,28.076z M68.512,50.795H31.489v-2.36  c2-0.357,3.799-1.294,5.22-2.633h26.584c1.42,1.339,3.219,2.276,5.219,2.633V50.795z M70.319,44.988  c-3.665,0-6.647-2.982-6.647-6.647c0-0.999-0.809-1.808-1.808-1.808s-1.808,0.81-1.808,1.808c0,1.36,0.271,2.656,0.754,3.844H39.192  c0.482-1.188,0.754-2.484,0.754-3.844c0-0.999-0.81-1.808-1.808-1.808s-1.808,0.81-1.808,1.808c0,3.665-2.983,6.647-6.649,6.647  s-6.649-2.982-6.649-6.647c0-3.666,2.983-6.649,6.649-6.649h40.639c3.666,0,6.649,2.983,6.649,6.649  C76.969,42.006,73.985,44.988,70.319,44.988z M31.167,25.594h37.668c0.999,0,1.808-0.81,1.808-1.808s-0.809-1.808-1.808-1.808  H31.167c-0.999,0-1.808,0.81-1.808,1.808S30.168,25.594,31.167,25.594z"/><text x="0" y="115" fill="#000000" font-size="5px" font-weight="bold" font-family="'Helvetica Neue', Helvetica, Arial-Unicode, Arial, Sans-serif">Created by Sergey Demushkin</text><text x="0" y="120" fill="#000000" font-size="5px" font-weight="bold" font-family="'Helvetica Neue', Helvetica, Arial-Unicode, Arial, Sans-serif">from the Noun Project</text></svg>