<svg xmlns:dc="http://purl.org/dc/elements/1.1/" xmlns:cc="http://creativecommons.org/ns#" xmlns:rdf="http://www.w3.org/1999/02/22-rdf-syntax-ns#" xmlns:svg="http://www.w3.org/2000/svg" xmlns="http://www.w3.org/2000/svg" xmlns:sodipodi="http://sodipodi.sourceforge.net/DTD/sodipodi-0.dtd" xmlns:inkscape="http://www.inkscape.org/namespaces/inkscape" version="1.1" x="0px" y="0px" viewBox="0 0 50 62.5"><g transform="translate(0,-1002.3622)"><path style="text-indent:0;text-transform:none;direction:ltr;block-progression:tb;baseline-shift:baseline;color:#000000;enable-background:accumulate;" d="m 14.990563,1016.3622 c -0.25859,0 -0.49736,0.1184 -0.69466,0.3154 -0.39453,0.3942 -0.39455,1.0254 0,1.4197 l 9.28318,9.2748 -9.28318,9.2749 c -0.39455,0.3943 -0.39453,1.0254 0,1.4195 0.39461,0.3942 1.02629,0.3942 1.4209,0 l 9.28318,-9.2748 9.28319,9.2748 c 0.3946,0.3942 1.02635,0.3941 1.42089,0 0.3946,-0.3942 0.39457,-1.0252 0,-1.4195 l -9.28318,-9.2749 9.28318,-9.2748 c 0.39457,-0.3943 0.3946,-1.0254 0,-1.4197 -0.39454,-0.3941 -1.02629,-0.3942 -1.42089,0 l -9.28319,9.2749 -9.28318,-9.2749 c -0.19731,-0.197 -0.46765,-0.3154 -0.72624,-0.3154 z" fill="#000000" fill-opacity="1" stroke="none" marker="none" visibility="visible" display="inline" overflow="visible"/></g><text x="0" y="65" fill="#000000" font-size="5px" font-weight="bold" font-family="'Helvetica Neue', Helvetica, Arial-Unicode, Arial, Sans-serif">Created by Eagle Eye</text><text x="0" y="70" fill="#000000" font-size="5px" font-weight="bold" font-family="'Helvetica Neue', Helvetica, Arial-Unicode, Arial, Sans-serif">from the Noun Project</text></svg>