<svg xmlns="http://www.w3.org/2000/svg" xmlns:xlink="http://www.w3.org/1999/xlink" version="1.1" x="0px" y="0px" viewBox="0 0 100 125" enable-background="new 0 0 100 100" xml:space="preserve"><path d="M85.675,37.831L50.911,17.547c-0.563-0.329-1.26-0.329-1.822,0L14.325,37.831c-0.706,0.412-1.047,1.245-0.834,2.034  c0.213,0.789,0.929,1.336,1.746,1.336h4.182v3.358c0,0.999,0.81,1.808,1.808,1.808h3.87v22.384h-1.735  c-0.999,0-1.808,0.81-1.808,1.809v3.357H18.41c-0.999,0-1.808,0.81-1.808,1.809v5.166c0,0.999,0.81,1.809,1.808,1.809h63.18  c0.999,0,1.809-0.81,1.809-1.809v-5.166c0-0.999-0.81-1.809-1.809-1.809h-3.143V70.56c0-0.999-0.81-1.809-1.809-1.809h-1.735V46.367  h3.87c0.999,0,1.809-0.81,1.809-1.808v-3.358h4.182c0.816,0,1.532-0.547,1.745-1.336C86.723,39.076,86.381,38.243,85.675,37.831z   M79.781,77.534v1.549H20.218v-1.549H79.781z M74.83,72.368v1.549H25.169v-1.549H74.83z M28.712,68.751V46.367h3.47v22.384H28.712z   M35.798,68.751V46.367h8.851v22.384H35.798z M48.265,68.751V46.367h3.469v22.384H48.265z M55.352,68.751V46.367h8.848v22.384  H55.352z M67.816,68.751V46.367h3.47v22.384H67.816z M76.965,42.75h-53.93v-1.55h53.93V42.75z M21.923,37.584L50,21.202  l28.077,16.383H21.923z M44.229,29.95c0,3.182,2.589,5.77,5.771,5.77c3.183,0,5.771-2.588,5.771-5.77  c0-3.182-2.589-5.771-5.771-5.771C46.818,24.179,44.229,26.768,44.229,29.95z M52.154,29.95c0,1.188-0.966,2.154-2.154,2.154  c-1.188,0-2.155-0.966-2.155-2.154c0-1.188,0.967-2.155,2.155-2.155C51.188,27.795,52.154,28.762,52.154,29.95z"/><text x="0" y="115" fill="#000000" font-size="5px" font-weight="bold" font-family="'Helvetica Neue', Helvetica, Arial-Unicode, Arial, Sans-serif">Created by Sergey Demushkin</text><text x="0" y="120" fill="#000000" font-size="5px" font-weight="bold" font-family="'Helvetica Neue', Helvetica, Arial-Unicode, Arial, Sans-serif">from the Noun Project</text></svg>