<svg xmlns="http://www.w3.org/2000/svg" xmlns:xlink="http://www.w3.org/1999/xlink" version="1.1" x="0px" y="0px" viewBox="0 0 100 125" enable-background="new 0 0 100 100" xml:space="preserve"><g><path fill="#000000" d="M43.625,18.492c-6.458,0-11.854,5.135-11.854,11.414v4.409h-9.618c-4.194,0-7.661,3.461-7.661,7.647V73.86   c0,4.215,3.467,7.647,7.661,7.647h55.667c4.222,0,7.688-3.433,7.688-7.647V41.962c0-4.186-3.467-7.647-7.688-7.647h-9.59v-4.409   c0-6.279-5.425-11.414-11.883-11.414H43.625z M43.625,23.181h12.722c3.97,0,7.157,3.181,7.157,6.726v4.409H36.468v-4.409   C36.468,26.362,39.684,23.181,43.625,23.181L43.625,23.181z M22.153,39.004h55.667c1.677,0,2.991,1.284,2.991,2.958v13.619H57.996   v-4.884c-0.028-1.228-1.118-2.316-2.349-2.316H44.352c-0.083-0.028-0.167-0.028-0.251,0c-1.146,0.112-2.125,1.173-2.125,2.316   v4.884H19.189V41.962C19.189,40.288,20.476,39.004,22.153,39.004L22.153,39.004z M46.701,53.042h6.598v9.739h-6.598V53.042z    M19.189,60.242h22.786v4.855c0,1.256,1.146,2.372,2.376,2.372h11.296c1.23,0,2.349-1.144,2.349-2.372v-4.855h22.814V73.86   c0,1.675-1.314,2.959-2.991,2.959H22.153c-1.677,0-2.963-1.284-2.963-2.959V60.242z"/></g><text x="0" y="115" fill="#000000" font-size="5px" font-weight="bold" font-family="'Helvetica Neue', Helvetica, Arial-Unicode, Arial, Sans-serif">Created by romzicon</text><text x="0" y="120" fill="#000000" font-size="5px" font-weight="bold" font-family="'Helvetica Neue', Helvetica, Arial-Unicode, Arial, Sans-serif">from the Noun Project</text></svg>