<svg xmlns="http://www.w3.org/2000/svg" xmlns:xlink="http://www.w3.org/1999/xlink" version="1.1" x="0px" y="0px" viewBox="0 0 100 125" enable-background="new 0 0 100 100" xml:space="preserve"><g><path fill="#000000" d="M48.57,22.793L8.074,38.412c-0.897,0.334-1.569,1.281-1.569,2.228c0,0.975,0.672,1.921,1.569,2.255   l13.144,5.067v19.794c0,2.172,1.485,3.759,3.167,4.845c1.653,1.113,3.783,1.948,6.333,2.645c5.073,1.42,11.827,2.255,19.31,2.255   c7.482,0,14.237-0.835,19.337-2.255c2.522-0.696,4.652-1.531,6.306-2.645c1.682-1.086,3.167-2.673,3.167-4.845V47.99l9.864-3.814   V56.48c0,1.253,1.149,2.422,2.41,2.422c1.262,0,2.41-1.169,2.383-2.422V41.224c0-1.141-0.589-2.45-1.514-2.812L51.484,22.793   C50.364,22.348,49.467,22.459,48.57,22.793L48.57,22.793z M50.028,27.415L84.415,40.64L50.028,53.892L15.668,40.64L50.028,27.415z    M26.038,49.799l23.121,8.936c0.561,0.223,1.177,0.223,1.738,0l23.148-8.908v17.901c-1.373,1.447-4.147,2.395-5.997,2.923   c-4.456,1.226-10.874,2.061-18.02,2.061c-7.119,0-13.62-0.724-18.048-2.061c-2.13-0.668-4.4-1.28-5.941-2.896V49.799z"/></g><text x="0" y="115" fill="#000000" font-size="5px" font-weight="bold" font-family="'Helvetica Neue', Helvetica, Arial-Unicode, Arial, Sans-serif">Created by romzicon</text><text x="0" y="120" fill="#000000" font-size="5px" font-weight="bold" font-family="'Helvetica Neue', Helvetica, Arial-Unicode, Arial, Sans-serif">from the Noun Project</text></svg>