<svg xmlns="http://www.w3.org/2000/svg" xmlns:xlink="http://www.w3.org/1999/xlink" version="1.1" x="0px" y="0px" viewBox="0 0 100 125" style="enable-background:new 0 0 100 100;" xml:space="preserve"><g><g><g><path d="M50,98c-12.8,0-24.9-5-33.9-14.1C1.3,69.1-2.2,46.7,7.3,28c0.9-1.7,2.9-2.3,4.6-1.5c1.7,0.9,2.3,2.9,1.5,4.6     c-8.2,16-5.2,35.2,7.5,47.9C28.7,86.9,39,91.1,50,91.1c11,0,21.3-4.3,29.1-12.1s12-18.1,12-29.1c0-11-4.3-21.3-12-29.1     S61,8.9,50,8.9s-21.3,4.3-29.1,12.1c-1.3,1.3-3.5,1.3-4.8,0s-1.3-3.5,0-4.8C25.2,7,37.2,2,50,2s24.9,5,33.9,14.1     C93,25.1,98,37.2,98,50c0,12.8-5,24.9-14.1,33.9C74.9,93,62.8,98,50,98z"/></g><g><path d="M67.4,69.1c-0.8,0-1.5-0.2-2.1-0.8L48.2,54.7C47.3,54,46.9,53,46.9,52V24.6c0-1.9,1.5-3.4,3.4-3.4c1.9,0,3.4,1.5,3.4,3.4     v25.8L69.6,63c1.5,1.2,1.7,3.3,0.5,4.8C69.4,68.7,68.4,69.1,67.4,69.1z"/></g></g></g><text x="0" y="115" fill="#000000" font-size="5px" font-weight="bold" font-family="'Helvetica Neue', Helvetica, Arial-Unicode, Arial, Sans-serif">Created by Harsha Rai</text><text x="0" y="120" fill="#000000" font-size="5px" font-weight="bold" font-family="'Helvetica Neue', Helvetica, Arial-Unicode, Arial, Sans-serif">from the Noun Project</text></svg>