<svg xmlns="http://www.w3.org/2000/svg" xmlns:xlink="http://www.w3.org/1999/xlink" version="1.1" x="0px" y="0px" viewBox="0 0 100 125" enable-background="new 0 0 100 100" xml:space="preserve"><path d="M75.125,76.016L64.33,57.561c1.274-0.878,2.48-1.873,3.598-2.99c0.706-0.706,0.706-1.851,0-2.557  c-0.705-0.707-1.852-0.707-2.557,0c-0.896,0.896-1.866,1.687-2.881,2.402l-7.265-12.42c1.394-1.36,2.263-3.256,2.263-5.353  c0-3.504-2.423-6.445-5.68-7.258v-6.314c0-0.998-0.811-1.809-1.809-1.809s-1.809,0.811-1.809,1.809v6.314  c-3.256,0.813-5.68,3.754-5.68,7.258c0,2.097,0.869,3.992,2.263,5.354L37.51,54.416c-1.014-0.716-1.984-1.507-2.879-2.402  c-0.707-0.707-1.852-0.707-2.558,0c-0.706,0.706-0.706,1.851-0.001,2.557c1.118,1.117,2.324,2.112,3.599,2.989L24.875,76.016  c-0.504,0.862-0.215,1.97,0.647,2.474c0.287,0.168,0.601,0.248,0.911,0.248c0.621,0,1.227-0.32,1.563-0.896L38.789,59.39  c2.916,1.44,6.096,2.305,9.402,2.537v1.172c0,0.999,0.811,1.809,1.809,1.809s1.809-0.81,1.809-1.809v-1.172  c3.307-0.232,6.487-1.096,9.402-2.536l10.793,18.451c0.336,0.575,0.94,0.896,1.563,0.896c0.31,0,0.624-0.08,0.911-0.248  C75.34,77.985,75.63,76.878,75.125,76.016z M50,32.772c2.135,0,3.871,1.736,3.871,3.871S52.135,40.515,50,40.515  s-3.871-1.736-3.871-3.871S47.865,32.772,50,32.772z M51.809,58.293v-1.014c0-0.999-0.811-1.809-1.809-1.809  s-1.809,0.81-1.809,1.809v1.014c-2.653-0.218-5.201-0.921-7.561-2.051l7.264-12.417c0.668,0.195,1.374,0.307,2.105,0.307  s1.438-0.111,2.106-0.307l7.263,12.417C57.011,57.372,54.462,58.075,51.809,58.293z"/><text x="0" y="115" fill="#000000" font-size="5px" font-weight="bold" font-family="'Helvetica Neue', Helvetica, Arial-Unicode, Arial, Sans-serif">Created by Sergey Demushkin</text><text x="0" y="120" fill="#000000" font-size="5px" font-weight="bold" font-family="'Helvetica Neue', Helvetica, Arial-Unicode, Arial, Sans-serif">from the Noun Project</text></svg>